<svg id="ico-en" xmlns="http://www.w3.org/2000/svg" width="50" height="50" viewBox="0 0 50 50">
  <g id="Grupo_3385" data-name="Grupo 3385" transform="translate(0.823 1.001)">
    <path id="Trazado_7250" data-name="Trazado 7250" d="M11.374,102.641a24.892,24.892,0,0,0-3.58,7.791H19.166Z" transform="translate(-7.794 -92.807)" fill="#29337a"/>
    <path id="Trazado_7251" data-name="Trazado 7251" d="M103.594,9.48A24.91,24.91,0,0,0,95.7,13.4l7.9,7.9Z" transform="translate(-86.418 -9.48)" fill="#29337a"/>
    <path id="Trazado_7252" data-name="Trazado 7252" d="M101.261,369.052a24.873,24.873,0,0,0,7.31,3.506V361.743Z" transform="translate(-91.395 -324.559)" fill="#29337a"/>
    <path id="Trazado_7253" data-name="Trazado 7253" d="M10.512,306.771a24.908,24.908,0,0,0,3.712,7.371l7.371-7.371Z" transform="translate(-10.225 -275.39)" fill="#29337a"/>
  </g>
  <g id="Grupo_3386" data-name="Grupo 3386" transform="translate(0.364 0.476)">
    <path id="Trazado_7254" data-name="Trazado 7254" d="M7.9,97.144q-.21.287-.413.581l7.792,7.791H3.907c-.184.7-.335,1.416-.459,2.141H18.413Z" transform="translate(-3.448 -87.365)" fill="#fff"/>
    <path id="Trazado_7255" data-name="Trazado 7255" d="M95.767,342.08c.19.142.386.277.58.413l7.31-7.309V346c.7.205,1.416.383,2.141.525V332.05Z" transform="translate(-86.022 -297.476)" fill="#fff"/>
    <path id="Trazado_7256" data-name="Trazado 7256" d="M5.25,286.487c.155.725.338,1.44.555,2.141H16.889L9.517,296a25.166,25.166,0,0,0,2.657,3.074L24.76,286.487Z" transform="translate(-5.06 -256.722)" fill="#fff"/>
    <path id="Trazado_7257" data-name="Trazado 7257" d="M77.755,5.031v11.82l-7.9-7.9a25.141,25.141,0,0,0-3.049,2.681L79.9,24.723V4.506C79.17,4.649,78.457,4.827,77.755,5.031Z" transform="translate(-60.12 -4.506)" fill="#fff"/>
  </g>
  <g id="Grupo_3387" data-name="Grupo 3387" transform="translate(17.924 18.552)">
    <path id="Trazado_7258" data-name="Trazado 7258" d="M169.875,306.056l-.075.076h.075Z" transform="translate(-169.8 -292.302)" fill="#d32030"/>
    <path id="Trazado_7259" data-name="Trazado 7259" d="M190.084,285.848h.075v-.075Z" transform="translate(-187.943 -274.16)" fill="#d32030"/>
    <path id="Trazado_7260" data-name="Trazado 7260" d="M280.617,196.737h-.072v.073Z" transform="translate(-268.855 -194.522)" fill="#d32030"/>
    <path id="Trazado_7261" data-name="Trazado 7261" d="M170.585,175.828l-.074-.074v.074Z" transform="translate(-170.436 -175.754)" fill="#d32030"/>
    <path id="Trazado_7262" data-name="Trazado 7262" d="M190.794,196.037v.074h.074Z" transform="translate(-188.578 -193.896)" fill="#d32030"/>
  </g>
  <g id="Grupo_3388" data-name="Grupo 3388" transform="translate(31.754 0.931)">
    <path id="Trazado_7263" data-name="Trazado 7263" d="M300.825,378.373v5.6a24.858,24.858,0,0,0,7.411-3.472l-6.072-6.072A19.679,19.679,0,0,1,300.825,378.373Z" transform="translate(-300.825 -335.839)" fill="#252f6c"/>
    <path id="Trazado_7264" data-name="Trazado 7264" d="M302.2,19.337l6.629-6.629a24.9,24.9,0,0,0-8-3.89v5.757A22.161,22.161,0,0,1,302.2,19.337Z" transform="translate(-300.824 -8.818)" fill="#252f6c"/>
    <path id="Trazado_7265" data-name="Trazado 7265" d="M363.333,314.288a24.927,24.927,0,0,0,3.816-7.517H355.816Z" transform="translate(-350.011 -275.32)" fill="#252f6c"/>
    <path id="Trazado_7266" data-name="Trazado 7266" d="M367.411,109.2a24.883,24.883,0,0,0-3.684-7.937l-7.938,7.937Z" transform="translate(-349.987 -91.507)" fill="#252f6c"/>
  </g>
  <g id="Grupo_3389" data-name="Grupo 3389" transform="translate(29.613 0.431)">
    <path id="Trazado_7267" data-name="Trazado 7267" d="M327.638,286.914l1.718,1.718,8.223,8.223c.187-.234.372-.467.551-.706l-7.517-7.517h11.333q.324-1.051.554-2.141H327.8C327.775,286.795,327.667,286.613,327.638,286.914Z" transform="translate(-322.667 -256.681)" fill="#e7e7e7"/>
    <path id="Trazado_7268" data-name="Trazado 7268" d="M311.292,53.555l7.453-7.454c-.187-.145-.374-.289-.565-.429L311.552,52.3C311.62,52.563,311.228,53.286,311.292,53.555Z" transform="translate(-308.04 -41.282)" fill="#e7e7e7"/>
    <path id="Trazado_7269" data-name="Trazado 7269" d="M282.682,9.883v-5.3q-1.052-.295-2.141-.5V6.671A13.827,13.827,0,0,1,282.682,9.883Z" transform="translate(-280.541 -4.087)" fill="#e7e7e7"/>
    <path id="Trazado_7270" data-name="Trazado 7270" d="M322.165,84.778h15.221c-.124-.725-.274-1.439-.458-2.141H325.305l7.938-7.937a25.132,25.132,0,0,0-2.595-3.135l-8.941,8.94C321.948,82.127,322.056,83.068,322.165,84.778Z" transform="translate(-317.362 -64.442)" fill="#e7e7e7"/>
    <path id="Trazado_7271" data-name="Trazado 7271" d="M310.088,333.071l6.434,6.435a25.075,25.075,0,0,0,3.018-2.448l-8.463-8.463A43.481,43.481,0,0,1,310.088,333.071Z" transform="translate(-306.969 -294.341)" fill="#e7e7e7"/>
    <path id="Trazado_7272" data-name="Trazado 7272" d="M280.545,414.987v2.88q1.088-.2,2.141-.5v-5.6A13.9,13.9,0,0,1,280.545,414.987Z" transform="translate(-280.545 -368.73)" fill="#e7e7e7"/>
  </g>
  <path id="Trazado_7273" data-name="Trazado 7273" d="M316.07,60.978l8.94-8.94a25,25,0,0,0-2.581-2.3l-7.025,7.026C315.717,58.064,315.859,59.558,316.07,60.978Z" transform="translate(-282.112 -44.483)" fill="#d71f28"/>
  <g id="Grupo_3390" data-name="Grupo 3390" transform="translate(23.752)">
    <path id="Trazado_7274" data-name="Trazado 7274" d="M225.019.031Q225.644,0,226.266,0,225.639,0,225.019.031Z" transform="translate(-225.019 0)" fill="#d32030"/>
    <path id="Trazado_7275" data-name="Trazado 7275" d="M226.273,473.413c-.416,0-.831-.011-1.247-.032Q225.646,473.413,226.273,473.413Z" transform="translate(-225.025 -423.413)" fill="#d32030"/>
    <path id="Trazado_7276" data-name="Trazado 7276" d="M236.836,445.613a25.049,25.049,0,0,0,4.614-.433V442.3C240.136,443.724,238.6,445.613,236.836,445.613Z" transform="translate(-235.589 -395.613)" fill="#d32030"/>
  </g>
  <g id="Grupo_3391" data-name="Grupo 3391" transform="translate(33.721 20.767)">
    <path id="Trazado_7277" data-name="Trazado 7277" d="M342.325,196.737H327.3a67.173,67.173,0,0,1-.072,9.474h14.9a24.939,24.939,0,0,0,.19-9.474Z" transform="translate(-326.409 -196.737)" fill="#d71f28"/>
    <path id="Trazado_7278" data-name="Trazado 7278" d="M320.32,290.5c-.139,1.477-.623,2.628-.864,4.022l8.463,8.463a25.232,25.232,0,0,0,2.341-2.543l-8.223-8.224Z" transform="translate(-319.456 -280.603)" fill="#d71f28"/>
  </g>
  <path id="Trazado_7279" data-name="Trazado 7279" d="M241.45,3.2V.432A25.119,25.119,0,0,0,236.836,0C238.6,0,240.136,1.778,241.45,3.2Z" transform="translate(-211.836)" fill="#d32030"/>
  <g id="Grupo_3392" data-name="Grupo 3392" transform="translate(31.754 5.455)">
    <path id="Trazado_7280" data-name="Trazado 7280" d="M300.825,368.111a26.932,26.932,0,0,0,1.742-4.619l-1.742-1.742Z" transform="translate(-300.825 -329.021)" fill="#29337a"/>
    <path id="Trazado_7281" data-name="Trazado 7281" d="M302.783,57.085a28.118,28.118,0,0,0-1.958-5.408v7.365Z" transform="translate(-300.825 -51.677)" fill="#29337a"/>
  </g>
  <g id="Grupo_3393" data-name="Grupo 3393" transform="translate(29.613 2.243)">
    <path id="Trazado_7282" data-name="Trazado 7282" d="M324.537,287.4q.042-.452.078-.908h-.987Z" transform="translate(-319.081 -258.489)" fill="#fff"/>
    <path id="Trazado_7283" data-name="Trazado 7283" d="M282.682,31.822V24.457a13.826,13.826,0,0,0-2.141-3.212V34.957l4.3-4.3c-.065-.268-.133-.531-.2-.793Z" transform="translate(-280.541 -21.245)" fill="#fff"/>
    <path id="Trazado_7284" data-name="Trazado 7284" d="M281.229,154.267h5.534c-.108-1.709-.281-3.391-.522-5.012Z" transform="translate(-281.157 -135.743)" fill="#fff"/>
    <path id="Trazado_7285" data-name="Trazado 7285" d="M280.545,306.86a13.84,13.84,0,0,0,2.141-3.212v-6.36l1.742,1.742a43.139,43.139,0,0,0,1.005-4.461l-4.888-4.888V306.86Z" transform="translate(-280.545 -261.346)" fill="#fff"/>
  </g>
  <path id="Trazado_7286" data-name="Trazado 7286" d="M29.613,47.757V30.578L34.5,35.466c.24-1.394.43-2.839.568-4.317l-.908-.908h.987a67.21,67.21,0,0,0,.072-9.474H29.685L34.7,15.755c-.211-1.42-.472-2.794-.785-4.1l-4.3,4.3V2.243A6.21,6.21,0,0,0,25,0q-.624,0-1.247.031A25.166,25.166,0,0,0,20.14.476V20.693L7.052,7.606a25.242,25.242,0,0,0-2.237,2.648l8.372,8.372,2.142,2.141H.364a24.939,24.939,0,0,0,.19,9.473h19.51L7.478,42.827a25.178,25.178,0,0,0,2.631,2.254l10.03-10.03V49.524a25.189,25.189,0,0,0,3.613.445c.416.02.831.032,1.247.032A6.21,6.21,0,0,0,29.613,47.757Z" transform="translate(0 0)" fill="#e51d35"/>
</svg>
